# xmcd
#
# Track frame offsets: 
#        150
#        6275
#        13900
#        38892
#        56804
#        70908
#        81637
#        89561
#        97414
#        119367
#        132063
#        143534
#        158388
#
# Disc length: 2333 seconds
#
# Revision: 0
# Processed by: cddbd v1.5.2PL0 Copyright (c) Steve Scherf et al.
# Submitted via: ExactAudioCopyFreeDBPlugin 1.0
#
DISCID=b3091b0d
DTITLE=National Jazz Trio of Scotland, The - Standards Vol. II
DYEAR=1900
DGENRE=Thrash Metal
TTITLE0=We Grow Accustomed
TTITLE1=Never To Be
TTITLE2=Winter Breaks and Back to Spring
TTITLE3=Hillwalk
TTITLE4=Chance
TTITLE5=Miyuki
TTITLE6=Just Found This Out
TTITLE7=Snowed In
TTITLE8=This Is What You Could Have Won
TTITLE9=Mary of Argyle
TTITLE10=My Tiny Butterfly
TTITLE11=Things We Got Up To
TTITLE12=Unexpectedly
EXTD=
EXTT0=
EXTT1=
EXTT2=
EXTT3=
EXTT4=
EXTT5=
EXTT6=
EXTT7=
EXTT8=
EXTT9=
EXTT10=
EXTT11=
EXTT12=
PLAYORDER=
